<svg width="850" height="1080" viewBox="0 0 850 1080" fill="none" xmlns="http://www.w3.org/2000/svg">
<path d="M3.1687 359.351C3.81871 356.093 1.33475 335.023 7.81162 332.251C18.4671 327.7 22.46 341.492 28.0083 348.33C104.756 442.844 207.318 501.224 315.289 551.981C389.645 586.936 467.762 613.573 540.191 652.871C579.076 673.964 614.826 699.192 647.42 728.925C701.904 778.642 708.985 858.786 665.225 918.044C653.571 933.8 644.518 937.612 629.568 921.602C540.54 826.234 431.408 761.315 310.785 713.469C244.856 687.317 181.898 655.574 126.415 610.292C46.371 544.981 11.4563 458.415 3.1687 359.351Z" fill="#F0F0F0"/>
<path d="M17.5154 626.256C17.7243 620.273 19.1636 616.022 20.8815 615.837C22.4137 615.675 24.9208 618.702 26.128 621.151C26.2673 621.451 26.3833 621.682 26.3833 621.682C61.507 702.657 216.093 779.682 216.093 779.682C257.276 800.197 256.37 796.246 330.819 831.848C344.609 838.455 379.779 855.389 424.258 879.786C429.319 882.558 475.864 908.41 527.354 951.936C547.156 968.685 559.042 981.623 557.649 994.722C556.628 1004.47 544.765 1013.09 521.249 1028.87C498.243 1044.3 474.193 1058.16 450.676 1072.81C438.535 1080.39 426.464 1083.16 413.022 1075.26C269.231 990.979 182.478 902.427 182.478 902.427C155.062 874.079 133.751 849.591 114.738 825.841C78.4769 780.56 60.4392 750.179 55.1462 741.123C55.1462 741.123 37.9442 711.644 18.9547 646.494C18.9547 646.54 17.1207 638.039 17.5154 626.256Z" fill="#F0F0F0"/>
<path d="M845.347 296.742C857.372 319.29 838.661 374.76 835.666 383.423C833.415 388.205 829.747 395.159 824.036 402.737C816.468 412.787 807.437 425.262 794.437 428.127C784.339 430.345 772.941 426.926 758.06 418.216C728.438 400.889 697.377 395.414 663.577 403.962C640.107 409.899 618.424 420.11 595.976 428.45C528.677 453.424 473.89 434.087 438.929 372.172C419.475 337.726 410.213 299.791 404.2 261.002C402.018 246.932 399.766 232.886 397.538 218.816C395.541 219.232 393.545 219.625 391.548 220.041C385.629 287.87 388.461 354.66 429.249 413.434C455.876 451.807 493.646 471.445 542.141 469.712C574.944 468.534 604.728 457.075 634.953 446.979C649.369 442.173 662.509 441.203 676.739 447.164C747.521 476.781 790.607 530.565 811.361 602.414C821.761 638.431 817.304 674.933 804.536 710.165C802.4 716.033 800.914 723.75 793.602 724.581C784.432 725.621 782.784 716.888 779.719 710.65C761.821 674.448 738.165 642.451 706.593 617.13C636.648 561.037 557.788 521.139 472.707 493.184C398.977 468.973 325.085 445.5 256.648 407.912C163.117 356.532 89.9214 285.837 40.3351 190.908C40.3351 190.908 10.4347 129.363 0.916738 44.1134C0.127442 36.9978 -0.127907 22.5355 0.0578097 16.8753C0.127453 15.0964 0.22031 13.9413 0.382812 12.2779C0.916748 6.66392 1.00959 3.70678 2.40247 2.29751C4.23642 0.426188 7.44004 -0.0820719 12.7097 0.010339C61.5764 0.703421 110.443 0.333777 159.31 0.333777C160.703 6.20187 158.497 11.4 155.828 16.2978C139.461 46.3544 145.404 75.6025 161.817 102.61C184.335 139.666 214.63 172.056 228.35 214.75C232.343 204.031 230.695 194.35 228.071 184.463C220.503 155.815 207.898 129.108 196.128 102.124C180.365 65.9686 177.139 31.3607 207.364 0.333777C311.597 0.772729 415.808 1.18858 520.041 1.62753C531.416 1.04996 548.549 1.76615 566.168 10.0138C589.731 21.0338 592.447 35.3344 614.617 49.4964C630.194 59.4537 648.255 62.0874 684.377 67.3779C731.619 74.3087 736.958 72.7608 767.462 77.7279C807.693 84.266 830.35 111.134 825.615 144.587C805.557 140.66 805.557 140.66 756.133 170.601C773.776 174.921 788.866 179.449 804.28 182.129C820.113 184.878 827.402 192.294 828.307 208.998C831.047 259.685 820.438 279.022 774.496 301.801C752.326 312.798 729.901 323.333 708.056 334.954C701.579 338.396 687.395 339.02 692.85 350.779C698.979 363.994 709.843 363.231 722.704 355.515C754.206 336.617 786.335 318.481 814.332 294.778C817.977 291.705 826.148 284.197 834.297 286.184C840.542 287.685 843.931 294.039 845.347 296.742ZM235.755 65.8762C234.873 78.7906 240.073 91.0351 250.334 100.669C255.557 105.567 260.479 108.478 264.286 107.138C266.236 106.445 267.374 104.527 270.856 94.616C274.64 83.9194 275.429 80.7313 275.429 80.7313C283.647 47.8099 290.472 36.2354 283.461 26.9481C281.372 24.1989 279.12 22.9976 278.493 22.7203C264.681 16.5057 253.306 27.595 243.997 37.8757C237.195 45.4072 235.848 54.7407 235.755 65.8762ZM504.836 113.491C528.561 115.986 547.132 118.181 565.774 119.775C570.858 120.214 578.147 122.178 579.795 114.946C581.165 108.986 575.268 105.451 571.043 102.009C552.75 87.2231 534.806 89.4641 504.836 113.491Z" fill="#F0F0F0"/>
</svg>
