<svg width="1004" height="103" viewBox="0 0 1004 103" fill="none" xmlns="http://www.w3.org/2000/svg">
<mask id="path-1-outside-1" maskUnits="userSpaceOnUse" x="-0.600098" y="0" width="1005" height="103" fill="black">
<rect fill="white" x="-0.600098" width="1005" height="103"/>
<path d="M23.9399 100.4L11.7599 64.56L23.9399 28.72H15.9599L1.3999 64.56L15.9599 100.4H23.9399ZM44.3799 100.4L32.1999 64.56L44.3799 28.72H36.3999L21.8399 64.56L36.3999 100.4H44.3799Z"/>
<path d="M66.9407 91.44C64.1407 91.44 62.7407 89.76 62.3207 88.92C61.3407 87.24 61.2007 84.58 61.2007 79.54V20.74C61.2007 18.5 61.2007 15.28 62.7407 13.32C63.5807 12.34 64.9807 11.36 67.2207 11.36C69.4607 11.36 70.8607 12.34 71.7007 13.32C73.2407 15.28 73.2407 18.5 73.2407 20.74V35.44H83.6007V24.66C83.6007 20.04 84.0207 12.2 79.9607 6.74C76.8807 2.54 72.4007 1 67.6407 1C60.0807 1 55.8807 4.5 53.9207 7.16C50.4207 11.92 50.2807 17.52 50.2807 23.26V77.02C50.2807 81.92 50.1407 89.76 53.9207 95.22C55.8807 98.02 59.9407 101.8 67.0807 101.8C74.6407 101.8 78.5607 98.02 80.3807 95.36C82.0607 92.84 83.6007 88.36 83.6007 79.96V63.44H72.6807V79.54C72.6807 84.58 72.5407 87.24 71.5607 88.92C71.1407 89.76 69.7407 91.44 66.9407 91.44Z"/>
<path d="M108.23 101.8C115.93 101.8 119.71 98.02 121.25 96.06C125.31 90.88 124.89 83.88 124.89 78.84V23.96C124.89 18.92 125.31 11.92 121.25 6.74C119.71 4.78 115.93 1 108.23 1C100.53 1 96.7497 4.78 95.2097 6.74C91.1497 11.92 91.5697 18.92 91.5697 23.96V78.84C91.5697 83.88 91.1497 90.88 95.2097 96.06C96.7497 98.02 100.53 101.8 108.23 101.8ZM102.49 21.58C102.49 16.68 102.77 15 103.33 14.02C104.03 12.62 105.71 11.36 108.23 11.36C110.75 11.36 112.43 12.62 113.13 14.02C113.69 15 113.97 16.68 113.97 21.58V81.22C113.97 86.12 113.69 87.8 113.13 88.78C112.43 90.18 110.75 91.44 108.23 91.44C105.71 91.44 104.03 90.18 103.33 88.78C102.77 87.8 102.49 86.12 102.49 81.22V21.58Z"/>
<path d="M145.156 100.4V12.76H161.956V2.4H134.236V100.4H145.156Z"/>
<path d="M195.577 100.4V2.4H168.137V32.22C168.137 41.46 167.857 52.66 167.017 62.46C165.897 75.9 164.777 81.64 162.957 85.28C161.977 87.24 160.717 88.78 158.757 90.04V100.4H160.157C163.517 100.4 168.417 99.56 172.197 89.34C174.437 83.32 175.417 75.48 175.977 70.44C176.537 64.98 177.657 44.96 177.657 36.14V12.76H184.657V100.4H195.577Z"/>
<path d="M240.05 100.4L227.73 2.4H213.73L201.41 100.4H212.61L214.57 82.34H226.89L228.85 100.4H240.05ZM215.55 71.98L220.59 23.4L220.87 23.54L225.91 71.98H215.55Z"/>
<path d="M262.175 91.44C259.375 91.44 257.975 89.76 257.555 88.92C256.575 87.24 256.435 84.58 256.435 79.54V20.74C256.435 18.5 256.435 15.28 257.975 13.32C258.815 12.34 260.215 11.36 262.455 11.36C264.695 11.36 266.095 12.34 266.935 13.32C268.475 15.28 268.475 18.5 268.475 20.74V35.44H278.835V24.66C278.835 20.04 279.255 12.2 275.195 6.74C272.115 2.54 267.635 1 262.875 1C255.315 1 251.115 4.5 249.155 7.16C245.655 11.92 245.515 17.52 245.515 23.26V77.02C245.515 81.92 245.375 89.76 249.155 95.22C251.115 98.02 255.175 101.8 262.315 101.8C269.875 101.8 273.795 98.02 275.615 95.36C277.295 92.84 278.835 88.36 278.835 79.96V63.44H267.915V79.54C267.915 84.58 267.775 87.24 266.795 88.92C266.375 89.76 264.975 91.44 262.175 91.44Z"/>
<path d="M303.464 101.8C311.164 101.8 314.944 98.02 316.484 96.06C320.544 90.88 320.124 83.88 320.124 78.84V23.96C320.124 18.92 320.544 11.92 316.484 6.74C314.944 4.78 311.164 1 303.464 1C295.764 1 291.984 4.78 290.444 6.74C286.384 11.92 286.804 18.92 286.804 23.96V78.84C286.804 83.88 286.384 90.88 290.444 96.06C291.984 98.02 295.764 101.8 303.464 101.8ZM297.724 21.58C297.724 16.68 298.004 15 298.564 14.02C299.264 12.62 300.944 11.36 303.464 11.36C305.984 11.36 307.664 12.62 308.364 14.02C308.924 15 309.204 16.68 309.204 21.58V81.22C309.204 86.12 308.924 87.8 308.364 88.78C307.664 90.18 305.984 91.44 303.464 91.44C300.944 91.44 299.264 90.18 298.564 88.78C298.004 87.8 297.724 86.12 297.724 81.22V21.58Z"/>
<path d="M329.47 100.4H348.93C355.23 100.4 358.73 97.18 360.69 94.1C363.07 90.18 363.07 85.56 363.07 81.36V67.36C363.07 63.44 363.07 59.8 361.81 56.72C360.69 53.92 358.31 50.84 353.55 49.44L353.69 49.02C356.49 48.46 359.01 47.06 360.69 43.98C362.51 40.76 362.65 36.84 362.65 33.34V23.54C362.65 18.08 362.37 12.06 358.87 7.72C356.91 5.34 352.99 2.4 346.27 2.4H329.47V100.4ZM340.39 90.04V53.64H343.61C345.43 53.64 348.79 53.78 350.75 57C352.15 59.38 352.15 62.74 352.15 66.38V80.94C352.15 84.44 351.73 86.4 350.89 87.66C349.35 89.9 346.41 90.04 345.01 90.04H340.39ZM340.39 43.56V12.76H343.61C346.55 12.76 348.79 13.74 350.05 15C351.87 16.96 351.87 20.04 351.87 22.14V33.9C351.87 37.12 351.59 39.92 350.19 41.6C348.51 43.42 346.27 43.56 344.73 43.56H340.39Z"/>
<path d="M405.479 100.4L393.159 2.4H379.159L366.839 100.4H378.039L379.999 82.34H392.319L394.279 100.4H405.479ZM380.979 71.98L386.019 23.4L386.299 23.54L391.339 71.98H380.979Z"/>
<path d="M434.045 52.66V100.4H444.965V2.4H434.045V42.3H422.285V2.4H411.365V100.4H422.285V52.66H434.045Z"/>
<path d="M488.305 100.4V2.4H477.385V18.36L464.925 56.02L465.625 48.88V2.4H454.705V100.4H465.625V81.64L478.085 43.98L477.385 50.84V100.4H488.305Z"/>
<path d="M498.044 100.4H526.884V90.04H508.964V53.78H520.444V43.42H508.964V12.76H526.884V2.4H498.044V100.4Z"/>
<path d="M599.457 100.4V2.4H588.537V18.36L576.077 56.02L576.777 48.88V2.4H565.857V100.4H576.777V81.64L589.237 43.98L588.537 50.84V100.4H599.457Z"/>
<path d="M652.793 100.4V56.3C655.033 56.58 659.372 57 661.893 56.86C665.673 56.72 669.313 55.6 671.973 51.82C674.353 48.6 675.473 43.42 675.473 38.52V21.86C675.473 18.22 675.053 12.48 671.973 8.28C668.053 2.96 662.172 2.4 658.953 2.4H641.873V100.4H652.793ZM652.793 45.94V12.76H657.693C659.232 12.76 661.473 12.9 662.873 14.58C664.553 16.54 664.553 20.18 664.553 20.88V36.42C664.553 41.32 664.133 42.58 663.853 43.14C662.453 46.22 659.653 45.94 657.833 45.94H652.793Z"/>
<path d="M715.694 100.4L703.374 2.4H689.374L677.054 100.4H688.254L690.214 82.34H702.534L704.494 100.4H715.694ZM691.194 71.98L696.234 23.4L696.514 23.54L701.554 71.98H691.194Z"/>
<path d="M720.18 62.32V79.82C720.18 84.16 720.32 90.6 723.68 95.5C726.76 99.84 731.38 101.8 736.98 101.8C743.84 101.8 748.32 99.28 750.84 94.94C752.24 92.7 753.78 88.36 753.78 78.28V64.98C753.78 60.78 753.64 56.86 750.7 52.94C749.02 50.7 747.06 49.3 744.4 48.46V48.04C747.76 46.92 750.14 44.82 751.26 42.72C752.8 39.92 753.22 35.02 753.22 32.36V21.3C753.22 17.24 752.94 11.22 749.02 6.46C746.92 3.8 743.14 1 736.84 1C731.94 1 727.18 2.96 724.38 6.32C720.6 10.8 720.46 17.52 720.46 21.3V35.16H731.38V19.48C731.38 15.14 732.36 13.6 732.5 13.46C733.2 12.34 734.88 11.36 736.84 11.36C739.5 11.36 740.76 12.76 741.32 13.74C742.02 15 742.3 17.1 742.3 18.64V32.92C742.3 34.88 741.88 38.38 741.32 39.92C739.92 43.56 737.54 43.7 735.02 43.7H726.06V54.2L733.62 53.78C738.8 53.5 740.9 55.74 741.6 56.86C742.58 58.4 742.86 60.78 742.86 65.26V81.92C742.86 85.84 742.44 87.52 741.88 88.78C740.9 90.88 739.36 91.44 736.98 91.44C734.18 91.44 732.64 90.18 731.94 88.78C731.52 87.94 731.1 86.4 731.1 81.92V62.32H720.18Z"/>
<path d="M762.185 100.4H781.645C787.945 100.4 791.445 97.18 793.405 94.1C795.785 90.18 795.785 85.56 795.785 81.36V67.36C795.785 63.44 795.785 59.8 794.525 56.72C793.405 53.92 791.025 50.84 786.265 49.44L786.405 49.02C789.205 48.46 791.725 47.06 793.405 43.98C795.225 40.76 795.365 36.84 795.365 33.34V23.54C795.365 18.08 795.085 12.06 791.585 7.72C789.625 5.34 785.705 2.4 778.985 2.4H762.185V100.4ZM773.105 90.04V53.64H776.325C778.145 53.64 781.505 53.78 783.465 57C784.865 59.38 784.865 62.74 784.865 66.38V80.94C784.865 84.44 784.445 86.4 783.605 87.66C782.065 89.9 779.125 90.04 777.725 90.04H773.105ZM773.105 43.56V12.76H776.325C779.265 12.76 781.505 13.74 782.765 15C784.585 16.96 784.585 20.04 784.585 22.14V33.9C784.585 37.12 784.305 39.92 782.905 41.6C781.225 43.42 778.985 43.56 777.445 43.56H773.105Z"/>
<path d="M837.074 100.4V2.4H826.154V18.36L813.694 56.02L814.394 48.88V2.4H803.474V100.4H814.394V81.64L826.854 43.98L826.154 50.84V100.4H837.074Z"/>
<path d="M866.414 100.4V12.76H879.294V2.4H842.614V12.76H855.494V100.4H866.414Z"/>
<path d="M918.558 100.4V2.4H907.638V18.36L895.178 56.02L895.878 48.88V2.4H884.958V100.4H895.878V81.64L908.339 43.98L907.638 50.84V100.4H918.558Z"/>
<path d="M928.298 100.4H957.138V90.04H939.218V53.78H950.698V43.42H939.218V12.76H957.138V2.4H928.298V100.4Z"/>
<path d="M980.375 100.4H988.355L1002.92 64.56L988.355 28.72H980.375L992.555 64.56L980.375 100.4ZM959.935 100.4H967.915L982.475 64.56L967.915 28.72H959.935L972.115 64.56L959.935 100.4Z"/>
</mask>
<path d="M23.9399 100.4L11.7599 64.56L23.9399 28.72H15.9599L1.3999 64.56L15.9599 100.4H23.9399ZM44.3799 100.4L32.1999 64.56L44.3799 28.72H36.3999L21.8399 64.56L36.3999 100.4H44.3799Z" stroke="#2D3970" stroke-width="2" mask="url(#path-1-outside-1)"/>
<path d="M66.9407 91.44C64.1407 91.44 62.7407 89.76 62.3207 88.92C61.3407 87.24 61.2007 84.58 61.2007 79.54V20.74C61.2007 18.5 61.2007 15.28 62.7407 13.32C63.5807 12.34 64.9807 11.36 67.2207 11.36C69.4607 11.36 70.8607 12.34 71.7007 13.32C73.2407 15.28 73.2407 18.5 73.2407 20.74V35.44H83.6007V24.66C83.6007 20.04 84.0207 12.2 79.9607 6.74C76.8807 2.54 72.4007 1 67.6407 1C60.0807 1 55.8807 4.5 53.9207 7.16C50.4207 11.92 50.2807 17.52 50.2807 23.26V77.02C50.2807 81.92 50.1407 89.76 53.9207 95.22C55.8807 98.02 59.9407 101.8 67.0807 101.8C74.6407 101.8 78.5607 98.02 80.3807 95.36C82.0607 92.84 83.6007 88.36 83.6007 79.96V63.44H72.6807V79.54C72.6807 84.58 72.5407 87.24 71.5607 88.92C71.1407 89.76 69.7407 91.44 66.9407 91.44Z" stroke="#2D3970" stroke-width="2" mask="url(#path-1-outside-1)"/>
<path d="M108.23 101.8C115.93 101.8 119.71 98.02 121.25 96.06C125.31 90.88 124.89 83.88 124.89 78.84V23.96C124.89 18.92 125.31 11.92 121.25 6.74C119.71 4.78 115.93 1 108.23 1C100.53 1 96.7497 4.78 95.2097 6.74C91.1497 11.92 91.5697 18.92 91.5697 23.96V78.84C91.5697 83.88 91.1497 90.88 95.2097 96.06C96.7497 98.02 100.53 101.8 108.23 101.8ZM102.49 21.58C102.49 16.68 102.77 15 103.33 14.02C104.03 12.62 105.71 11.36 108.23 11.36C110.75 11.36 112.43 12.62 113.13 14.02C113.69 15 113.97 16.68 113.97 21.58V81.22C113.97 86.12 113.69 87.8 113.13 88.78C112.43 90.18 110.75 91.44 108.23 91.44C105.71 91.44 104.03 90.18 103.33 88.78C102.77 87.8 102.49 86.12 102.49 81.22V21.58Z" stroke="#2D3970" stroke-width="2" mask="url(#path-1-outside-1)"/>
<path d="M145.156 100.4V12.76H161.956V2.4H134.236V100.4H145.156Z" stroke="#2D3970" stroke-width="2" mask="url(#path-1-outside-1)"/>
<path d="M195.577 100.4V2.4H168.137V32.22C168.137 41.46 167.857 52.66 167.017 62.46C165.897 75.9 164.777 81.64 162.957 85.28C161.977 87.24 160.717 88.78 158.757 90.04V100.4H160.157C163.517 100.4 168.417 99.56 172.197 89.34C174.437 83.32 175.417 75.48 175.977 70.44C176.537 64.98 177.657 44.96 177.657 36.14V12.76H184.657V100.4H195.577Z" stroke="#2D3970" stroke-width="2" mask="url(#path-1-outside-1)"/>
<path d="M240.05 100.4L227.73 2.4H213.73L201.41 100.4H212.61L214.57 82.34H226.89L228.85 100.4H240.05ZM215.55 71.98L220.59 23.4L220.87 23.54L225.91 71.98H215.55Z" stroke="#2D3970" stroke-width="2" mask="url(#path-1-outside-1)"/>
<path d="M262.175 91.44C259.375 91.44 257.975 89.76 257.555 88.92C256.575 87.24 256.435 84.58 256.435 79.54V20.74C256.435 18.5 256.435 15.28 257.975 13.32C258.815 12.34 260.215 11.36 262.455 11.36C264.695 11.36 266.095 12.34 266.935 13.32C268.475 15.28 268.475 18.5 268.475 20.74V35.44H278.835V24.66C278.835 20.04 279.255 12.2 275.195 6.74C272.115 2.54 267.635 1 262.875 1C255.315 1 251.115 4.5 249.155 7.16C245.655 11.92 245.515 17.52 245.515 23.26V77.02C245.515 81.92 245.375 89.76 249.155 95.22C251.115 98.02 255.175 101.8 262.315 101.8C269.875 101.8 273.795 98.02 275.615 95.36C277.295 92.84 278.835 88.36 278.835 79.96V63.44H267.915V79.54C267.915 84.58 267.775 87.24 266.795 88.92C266.375 89.76 264.975 91.44 262.175 91.44Z" stroke="#2D3970" stroke-width="2" mask="url(#path-1-outside-1)"/>
<path d="M303.464 101.8C311.164 101.8 314.944 98.02 316.484 96.06C320.544 90.88 320.124 83.88 320.124 78.84V23.96C320.124 18.92 320.544 11.92 316.484 6.74C314.944 4.78 311.164 1 303.464 1C295.764 1 291.984 4.78 290.444 6.74C286.384 11.92 286.804 18.92 286.804 23.96V78.84C286.804 83.88 286.384 90.88 290.444 96.06C291.984 98.02 295.764 101.8 303.464 101.8ZM297.724 21.58C297.724 16.68 298.004 15 298.564 14.02C299.264 12.62 300.944 11.36 303.464 11.36C305.984 11.36 307.664 12.62 308.364 14.02C308.924 15 309.204 16.68 309.204 21.58V81.22C309.204 86.12 308.924 87.8 308.364 88.78C307.664 90.18 305.984 91.44 303.464 91.44C300.944 91.44 299.264 90.18 298.564 88.78C298.004 87.8 297.724 86.12 297.724 81.22V21.58Z" stroke="#2D3970" stroke-width="2" mask="url(#path-1-outside-1)"/>
<path d="M329.47 100.4H348.93C355.23 100.4 358.73 97.18 360.69 94.1C363.07 90.18 363.07 85.56 363.07 81.36V67.36C363.07 63.44 363.07 59.8 361.81 56.72C360.69 53.92 358.31 50.84 353.55 49.44L353.69 49.02C356.49 48.46 359.01 47.06 360.69 43.98C362.51 40.76 362.65 36.84 362.65 33.34V23.54C362.65 18.08 362.37 12.06 358.87 7.72C356.91 5.34 352.99 2.4 346.27 2.4H329.47V100.4ZM340.39 90.04V53.64H343.61C345.43 53.64 348.79 53.78 350.75 57C352.15 59.38 352.15 62.74 352.15 66.38V80.94C352.15 84.44 351.73 86.4 350.89 87.66C349.35 89.9 346.41 90.04 345.01 90.04H340.39ZM340.39 43.56V12.76H343.61C346.55 12.76 348.79 13.74 350.05 15C351.87 16.96 351.87 20.04 351.87 22.14V33.9C351.87 37.12 351.59 39.92 350.19 41.6C348.51 43.42 346.27 43.56 344.73 43.56H340.39Z" stroke="#2D3970" stroke-width="2" mask="url(#path-1-outside-1)"/>
<path d="M405.479 100.4L393.159 2.4H379.159L366.839 100.4H378.039L379.999 82.34H392.319L394.279 100.4H405.479ZM380.979 71.98L386.019 23.4L386.299 23.54L391.339 71.98H380.979Z" stroke="#2D3970" stroke-width="2" mask="url(#path-1-outside-1)"/>
<path d="M434.045 52.66V100.4H444.965V2.4H434.045V42.3H422.285V2.4H411.365V100.4H422.285V52.66H434.045Z" stroke="#2D3970" stroke-width="2" mask="url(#path-1-outside-1)"/>
<path d="M488.305 100.4V2.4H477.385V18.36L464.925 56.02L465.625 48.88V2.4H454.705V100.4H465.625V81.64L478.085 43.98L477.385 50.84V100.4H488.305Z" stroke="#2D3970" stroke-width="2" mask="url(#path-1-outside-1)"/>
<path d="M498.044 100.4H526.884V90.04H508.964V53.78H520.444V43.42H508.964V12.76H526.884V2.4H498.044V100.4Z" stroke="#2D3970" stroke-width="2" mask="url(#path-1-outside-1)"/>
<path d="M599.457 100.4V2.4H588.537V18.36L576.077 56.02L576.777 48.88V2.4H565.857V100.4H576.777V81.64L589.237 43.98L588.537 50.84V100.4H599.457Z" stroke="#2D3970" stroke-width="2" mask="url(#path-1-outside-1)"/>
<path d="M652.793 100.4V56.3C655.033 56.58 659.372 57 661.893 56.86C665.673 56.72 669.313 55.6 671.973 51.82C674.353 48.6 675.473 43.42 675.473 38.52V21.86C675.473 18.22 675.053 12.48 671.973 8.28C668.053 2.96 662.172 2.4 658.953 2.4H641.873V100.4H652.793ZM652.793 45.94V12.76H657.693C659.232 12.76 661.473 12.9 662.873 14.58C664.553 16.54 664.553 20.18 664.553 20.88V36.42C664.553 41.32 664.133 42.58 663.853 43.14C662.453 46.22 659.653 45.94 657.833 45.94H652.793Z" stroke="#2D3970" stroke-width="2" mask="url(#path-1-outside-1)"/>
<path d="M715.694 100.4L703.374 2.4H689.374L677.054 100.4H688.254L690.214 82.34H702.534L704.494 100.4H715.694ZM691.194 71.98L696.234 23.4L696.514 23.54L701.554 71.98H691.194Z" stroke="#2D3970" stroke-width="2" mask="url(#path-1-outside-1)"/>
<path d="M720.18 62.32V79.82C720.18 84.16 720.32 90.6 723.68 95.5C726.76 99.84 731.38 101.8 736.98 101.8C743.84 101.8 748.32 99.28 750.84 94.94C752.24 92.7 753.78 88.36 753.78 78.28V64.98C753.78 60.78 753.64 56.86 750.7 52.94C749.02 50.7 747.06 49.3 744.4 48.46V48.04C747.76 46.92 750.14 44.82 751.26 42.72C752.8 39.92 753.22 35.02 753.22 32.36V21.3C753.22 17.24 752.94 11.22 749.02 6.46C746.92 3.8 743.14 1 736.84 1C731.94 1 727.18 2.96 724.38 6.32C720.6 10.8 720.46 17.52 720.46 21.3V35.16H731.38V19.48C731.38 15.14 732.36 13.6 732.5 13.46C733.2 12.34 734.88 11.36 736.84 11.36C739.5 11.36 740.76 12.76 741.32 13.74C742.02 15 742.3 17.1 742.3 18.64V32.92C742.3 34.88 741.88 38.38 741.32 39.92C739.92 43.56 737.54 43.7 735.02 43.7H726.06V54.2L733.62 53.78C738.8 53.5 740.9 55.74 741.6 56.86C742.58 58.4 742.86 60.78 742.86 65.26V81.92C742.86 85.84 742.44 87.52 741.88 88.78C740.9 90.88 739.36 91.44 736.98 91.44C734.18 91.44 732.64 90.18 731.94 88.78C731.52 87.94 731.1 86.4 731.1 81.92V62.32H720.18Z" stroke="#2D3970" stroke-width="2" mask="url(#path-1-outside-1)"/>
<path d="M762.185 100.4H781.645C787.945 100.4 791.445 97.18 793.405 94.1C795.785 90.18 795.785 85.56 795.785 81.36V67.36C795.785 63.44 795.785 59.8 794.525 56.72C793.405 53.92 791.025 50.84 786.265 49.44L786.405 49.02C789.205 48.46 791.725 47.06 793.405 43.98C795.225 40.76 795.365 36.84 795.365 33.34V23.54C795.365 18.08 795.085 12.06 791.585 7.72C789.625 5.34 785.705 2.4 778.985 2.4H762.185V100.4ZM773.105 90.04V53.64H776.325C778.145 53.64 781.505 53.78 783.465 57C784.865 59.38 784.865 62.74 784.865 66.38V80.94C784.865 84.44 784.445 86.4 783.605 87.66C782.065 89.9 779.125 90.04 777.725 90.04H773.105ZM773.105 43.56V12.76H776.325C779.265 12.76 781.505 13.74 782.765 15C784.585 16.96 784.585 20.04 784.585 22.14V33.9C784.585 37.12 784.305 39.92 782.905 41.6C781.225 43.42 778.985 43.56 777.445 43.56H773.105Z" stroke="#2D3970" stroke-width="2" mask="url(#path-1-outside-1)"/>
<path d="M837.074 100.4V2.4H826.154V18.36L813.694 56.02L814.394 48.88V2.4H803.474V100.4H814.394V81.64L826.854 43.98L826.154 50.84V100.4H837.074Z" stroke="#2D3970" stroke-width="2" mask="url(#path-1-outside-1)"/>
<path d="M866.414 100.4V12.76H879.294V2.4H842.614V12.76H855.494V100.4H866.414Z" stroke="#2D3970" stroke-width="2" mask="url(#path-1-outside-1)"/>
<path d="M918.558 100.4V2.4H907.638V18.36L895.178 56.02L895.878 48.88V2.4H884.958V100.4H895.878V81.64L908.339 43.98L907.638 50.84V100.4H918.558Z" stroke="#2D3970" stroke-width="2" mask="url(#path-1-outside-1)"/>
<path d="M928.298 100.4H957.138V90.04H939.218V53.78H950.698V43.42H939.218V12.76H957.138V2.4H928.298V100.4Z" stroke="#2D3970" stroke-width="2" mask="url(#path-1-outside-1)"/>
<path d="M980.375 100.4H988.355L1002.92 64.56L988.355 28.72H980.375L992.555 64.56L980.375 100.4ZM959.935 100.4H967.915L982.475 64.56L967.915 28.72H959.935L972.115 64.56L959.935 100.4Z" stroke="#2D3970" stroke-width="2" mask="url(#path-1-outside-1)"/>
</svg>
