<svg width="242" height="242" viewBox="0 0 242 242" fill="none" xmlns="http://www.w3.org/2000/svg">
<path d="M66.5255 18.4101C65.9029 17.0761 65.814 15.8309 66.2586 14.4969C66.7033 13.1628 67.5927 12.1845 68.9268 11.5619C70.2608 10.9394 71.506 10.8504 72.84 11.2951C74.0852 11.7398 75.0635 12.6292 75.775 13.9632C76.3976 15.2973 76.4865 16.6314 76.0418 17.8765C75.5971 19.2106 74.7077 20.1 73.3737 20.7225C72.0396 21.3451 70.7945 21.434 69.4604 20.9893C68.1263 20.6336 67.148 19.7442 66.5255 18.4101ZM67.6816 17.8765C68.1263 18.8548 68.9268 19.5663 69.9051 20.011C70.8834 20.3668 71.8617 20.3668 72.84 19.8331C73.8184 19.3885 74.5299 18.588 74.7967 17.6097C75.1524 16.6314 75.0635 15.6531 74.5299 14.5858C73.9962 13.5186 73.2847 12.896 72.3064 12.4513C71.3281 12.0956 70.3498 12.0956 69.3715 12.6292C68.3932 13.0739 67.7706 13.7854 67.4148 14.8526C67.0591 15.9199 67.237 16.8093 67.6816 17.8765Z" fill="#2D3970"/>
<path d="M77.287 13.4296C76.8423 12.0955 76.8423 10.7615 77.376 9.51635C77.9096 8.27122 78.8879 7.38184 80.3109 6.93715C81.645 6.40352 82.979 6.49246 84.2242 7.11503C85.4693 7.64865 86.3587 8.71591 86.8034 10.1389C87.337 11.473 87.2481 12.8071 86.6255 14.0522C86.0029 15.2973 85.0246 16.1867 83.6905 16.6314C82.3565 17.0761 81.0224 17.0761 79.7773 16.5424C78.6211 15.8309 77.7317 14.8526 77.287 13.4296ZM78.4432 12.9849C78.799 14.0522 79.5105 14.8526 80.3999 15.2973C81.3782 15.742 82.3565 15.8309 83.3348 15.4752C84.402 15.1194 85.1136 14.4079 85.5582 13.5186C86.0029 12.5402 86.0029 11.5619 85.6472 10.4947C85.2914 9.42741 84.5799 8.62697 83.6905 8.18228C82.7122 7.73759 81.7339 7.64865 80.7556 8.00441C79.6883 8.36016 78.9768 9.07166 78.5322 9.96104C78.0875 10.8504 78.0875 11.9177 78.4432 12.9849Z" fill="#2D3970"/>
<path d="M88.4042 9.51635C88.0484 8.09334 88.2263 6.84821 88.9378 5.60308C89.6493 4.44689 90.7166 3.64645 92.1396 3.2907C93.5626 2.93495 94.8077 3.11282 95.9639 3.82433C97.1201 4.53583 97.9206 5.60308 98.2763 7.02609C98.6321 8.4491 98.4542 9.78316 97.7427 10.9394C97.0312 12.0955 95.9639 12.896 94.5409 13.2517C93.1179 13.6075 91.8728 13.4296 90.6276 12.7181C89.5604 12.0066 88.7599 10.9394 88.4042 9.51635ZM89.6493 9.24954C89.9161 10.3168 90.5387 11.2062 91.4281 11.7398C92.3175 12.2734 93.2958 12.4513 94.363 12.1845C95.4303 11.9177 96.2307 11.2951 96.7644 10.4057C97.298 9.51635 97.3869 8.4491 97.1201 7.38184C96.8533 6.31459 96.2307 5.42521 95.3413 4.89158C94.452 4.35795 93.4737 4.18008 92.4064 4.44689C91.3391 4.71371 90.5387 5.24733 90.0051 6.22565C89.5604 7.11503 89.3825 8.09334 89.6493 9.24954Z" fill="#2D3970"/>
<path d="M106.992 9.78316L106.281 10.5836L103.257 7.82653V7.73759L105.48 4.35795L106.281 4.89158L104.502 7.55971L106.992 9.78316ZM109.66 9.42741L108.949 10.2278L105.925 7.47077V7.38184L108.148 4.0022L108.949 4.53582L107.17 7.20396L109.66 9.42741Z" fill="#2D3970"/>
<path d="M112.862 6.40353L113.04 10.2279L111.795 10.3168L111.261 0.355756C111.617 0.355756 112.062 0.266818 112.506 0.266818C112.951 0.266818 113.396 0.17788 113.84 0.17788C115.175 0.0889419 116.064 0.355756 116.686 0.889383C117.309 1.42301 117.665 2.13451 117.665 3.02389C117.754 3.91327 117.398 4.62477 116.864 5.33628C116.331 5.95884 115.441 6.31459 114.285 6.40353C113.751 6.40353 113.307 6.40353 112.862 6.40353ZM114.107 1.33407C113.929 1.33407 113.396 1.42301 112.595 1.42301L112.773 5.24734C113.396 5.24734 113.84 5.24734 114.196 5.24734C114.908 5.24734 115.53 4.98053 115.886 4.62477C116.242 4.26902 116.42 3.7354 116.42 3.11283C116.42 2.49026 116.153 2.04558 115.797 1.68982C115.441 1.42301 114.908 1.24513 114.107 1.33407Z" fill="#2D3970"/>
<path d="M125.936 10.05L120.155 9.96104L120.333 0L125.936 0.0889379V1.24513L121.489 1.15619L121.4 4.35796L125.402 4.44689V5.60309L121.4 5.51415L121.311 8.80485L125.847 8.89379L125.936 10.05Z" fill="#2D3970"/>
<path d="M129.405 10.3168L128.159 10.2279L129.049 0.266815L130.294 0.355753L129.405 10.3168ZM134.919 0.800443L136.342 0.978318L131.45 5.24734L135.63 10.9394L134.118 10.7615L130.116 5.1584L134.919 0.800443Z" fill="#2D3970"/>
<path d="M144.88 12.5402L143.724 12.3624L145.325 3.64645L139.988 2.66813L138.387 11.384L137.231 11.2062L139.01 1.423L146.748 2.66813L144.88 12.5402Z" fill="#2D3970"/>
<path d="M149.771 9.78316L148.793 13.5186L147.637 13.1628L150.305 3.55751C150.661 3.64645 151.106 3.73539 151.55 3.91326C151.995 4.09114 152.44 4.09114 152.884 4.26901C154.129 4.62477 155.019 5.15839 155.375 5.8699C155.819 6.5814 155.908 7.38184 155.641 8.18228C155.375 8.98272 154.93 9.60529 154.129 10.05C153.418 10.4947 152.44 10.4947 151.372 10.2279C150.661 10.05 150.127 9.96104 149.771 9.78316ZM152.617 5.33627C152.44 5.33627 151.995 5.15839 151.194 4.98052L150.216 8.71591C150.75 8.89378 151.283 9.07166 151.639 9.1606C152.351 9.33847 152.973 9.33847 153.418 9.07166C153.952 8.80485 154.218 8.44909 154.396 7.82653C154.574 7.20396 154.485 6.75927 154.218 6.31458C153.863 5.8699 153.329 5.51414 152.617 5.33627Z" fill="#2D3970"/>
<path d="M156.442 10.4057C156.975 9.07166 157.776 8.09334 159.021 7.47078C160.266 6.84821 161.6 6.84821 162.934 7.38184C164.268 7.91547 165.247 8.71591 165.869 9.96104C166.403 11.2062 166.492 12.5402 165.958 13.9632C165.425 15.2973 164.535 16.2756 163.29 16.8982C162.045 17.4318 160.711 17.5208 159.377 16.9871C158.043 16.4535 157.064 15.6531 156.442 14.4079C155.997 13.1628 155.908 11.8287 156.442 10.4057ZM157.687 10.8504C157.331 11.9177 157.331 12.896 157.687 13.8743C158.132 14.8526 158.843 15.4752 159.821 15.9199C160.889 16.2756 161.867 16.2756 162.756 15.8309C163.646 15.3863 164.357 14.5858 164.713 13.5186C165.069 12.4513 165.069 11.473 164.713 10.4947C164.268 9.51635 163.557 8.89379 162.579 8.4491C161.511 8.09334 160.533 8.09334 159.644 8.53803C158.754 8.98272 158.043 9.78316 157.687 10.8504Z" fill="#2D3970"/>
<path d="M170.494 21.7898L169.427 21.2562L170.049 20.1C168.804 19.4774 167.915 18.677 167.381 17.6097C166.936 16.6314 166.936 15.5641 167.47 14.4969C168.004 13.4296 168.804 12.7181 169.871 12.4513C170.939 12.1845 172.095 12.4513 173.429 13.0739L173.873 12.1845L174.941 12.7181L174.496 13.6075C175.83 14.319 176.719 15.1194 177.164 16.0978C177.609 17.0761 177.609 18.1433 177.075 19.2106C176.542 20.2778 175.741 20.9893 174.585 21.2562C173.518 21.523 172.362 21.2562 171.027 20.6336L170.494 21.7898ZM168.626 15.0305C168.27 15.8309 168.181 16.6314 168.537 17.3429C168.893 18.0544 169.516 18.677 170.494 19.1216L172.984 14.0522C172.006 13.6075 171.116 13.4296 170.405 13.6075C169.604 13.6964 168.982 14.2301 168.626 15.0305ZM174.051 14.5858L171.561 19.6553C172.539 20.1 173.429 20.2778 174.14 20.1C174.852 19.9221 175.474 19.4774 175.919 18.588C176.275 17.7876 176.364 17.0761 176.008 16.3646C175.652 15.6531 175.03 15.0305 174.051 14.5858Z" fill="#2D3970"/>
<path d="M180.544 23.1238L176.631 24.4579L176.364 23.4796L179.388 22.5013L178.854 19.2995L179.832 19.1216L180.544 23.1238ZM182.856 24.5469L178.943 25.8809L178.676 24.9026L181.7 23.8354L181.166 20.6336L182.145 20.4557L182.856 24.5469Z" fill="#2D3970"/>
<path d="M182.412 27.7486C182.501 27.5707 182.679 27.4818 182.856 27.3929C183.034 27.3929 183.212 27.3929 183.479 27.5707C183.746 27.7486 183.835 28.0154 183.924 28.2822C184.013 28.5491 183.835 28.9048 183.568 29.2606C183.301 29.7053 182.945 29.9721 182.501 30.1499C182.056 30.3278 181.611 30.3278 181.078 30.1499V29.5274C181.611 29.7053 181.967 29.6163 182.323 29.2606C182.59 28.9938 182.679 28.8159 182.679 28.638C182.59 28.638 182.501 28.638 182.323 28.5491C182.234 28.4601 182.145 28.3712 182.145 28.1933C182.323 28.1044 182.323 27.9265 182.412 27.7486Z" fill="#2D3970"/>
<path d="M189.793 27.4818C190.683 26.3256 191.839 25.7031 193.173 25.5252C194.507 25.3473 195.752 25.7031 196.908 26.6814C198.065 27.5707 198.687 28.7269 198.865 30.061C199.043 31.3951 198.598 32.6402 197.709 33.7964C196.82 34.9526 195.663 35.5752 194.24 35.753C192.906 35.9309 191.661 35.4862 190.505 34.5968C189.349 33.7075 188.726 32.5513 188.548 31.2172C188.459 29.8831 188.815 28.638 189.793 27.4818ZM190.772 28.2822C190.06 29.1716 189.793 30.1499 189.793 31.2172C189.882 32.2845 190.327 33.0849 191.216 33.7964C192.106 34.5079 192.995 34.7747 194.062 34.5968C195.13 34.419 195.93 33.9743 196.642 33.0849C197.353 32.1955 197.709 31.2172 197.62 30.1499C197.531 29.0827 197.086 28.2822 196.197 27.5707C195.308 26.8592 194.418 26.5924 193.351 26.7703C192.284 26.9482 191.483 27.3929 190.772 28.2822Z" fill="#2D3970"/>
<path d="M198.954 34.9526C199.932 33.8853 201.178 33.4406 202.512 33.3517C203.846 33.2628 205.091 33.7964 206.158 34.8637C207.225 35.9309 207.759 37.0871 207.759 38.4212C207.759 39.7552 207.225 41.0004 206.158 42.0676C205.091 43.1349 203.935 43.6685 202.512 43.6685C201.178 43.6685 199.932 43.1349 198.954 42.1566C197.887 41.1782 197.353 39.9331 197.353 38.599C197.353 37.265 197.887 36.0198 198.954 34.9526ZM199.844 35.9309C199.043 36.7314 198.687 37.6207 198.598 38.688C198.598 39.7552 198.954 40.6446 199.755 41.3561C200.555 42.1566 201.444 42.5123 202.512 42.5123C203.579 42.5123 204.468 42.0676 205.269 41.2672C206.069 40.4667 206.514 39.4884 206.514 38.5101C206.514 37.4429 206.158 36.5535 205.358 35.842C204.557 35.0415 203.668 34.6858 202.601 34.6858C201.533 34.6858 200.644 35.0415 199.844 35.9309Z" fill="#2D3970"/>
<path d="M207.314 43.4017C208.47 42.5123 209.627 42.0676 211.05 42.1566C212.384 42.2455 213.54 42.8681 214.518 44.0242C215.408 45.1804 215.852 46.4256 215.674 47.7596C215.585 49.0937 214.874 50.2499 213.718 51.2282C212.562 52.1176 211.316 52.5623 209.982 52.4733C208.648 52.3844 207.492 51.6729 206.514 50.6057C205.535 49.5384 205.18 48.2043 205.269 46.8703C205.447 45.4473 206.069 44.2911 207.314 43.4017ZM208.115 44.38C207.225 45.0915 206.781 45.9809 206.603 47.0481C206.514 48.1154 206.781 49.0048 207.403 49.8941C208.115 50.7835 209.004 51.2282 209.982 51.3172C211.05 51.4061 211.939 51.0503 212.828 50.3388C213.718 49.6273 214.251 48.738 214.34 47.6707C214.429 46.6034 214.162 45.7141 213.54 44.8247C212.828 44.0243 211.939 43.4906 210.961 43.4017C209.982 43.3127 209.004 43.6685 208.115 44.38Z" fill="#2D3970"/>
<path d="M215.141 60.122L214.162 59.8552L215.319 55.9419H215.408L219.41 56.4756L219.232 57.4539L216.03 57.0092L215.141 60.122ZM216.564 62.4344L215.585 62.1676L216.742 58.2543H216.831L220.833 58.7879L220.655 59.7663L217.453 59.3216L216.564 62.4344Z" fill="#2D3970"/>
<path d="M221.722 69.9941L221.189 70.8835C220.744 70.7946 220.299 70.5277 219.855 70.0831C219.41 69.6384 219.054 69.1937 218.698 68.66C217.987 67.326 217.809 66.0809 218.165 64.7468C218.52 63.5017 219.41 62.4344 220.744 61.7229C222.078 61.0114 223.323 60.8335 224.568 61.1003C225.813 61.3671 226.881 62.2565 227.592 63.5906C228.215 64.6578 228.393 65.7251 228.215 66.7034L227.147 66.6145C227.236 65.814 227.058 64.9247 226.614 64.1242C226.08 63.1459 225.369 62.6123 224.39 62.3455C223.412 62.0786 222.434 62.2565 221.366 62.7901C220.299 63.3238 219.677 64.1242 219.321 65.1025C219.054 66.0808 219.143 67.0592 219.677 68.1264C220.21 69.0158 220.833 69.6384 221.722 69.9941Z" fill="#2D3970"/>
<path d="M225.191 69.8162C226.525 69.1937 227.859 69.1937 229.104 69.6384C230.349 70.083 231.327 71.0614 231.95 72.3954C232.573 73.7295 232.573 75.0636 232.128 76.3087C231.683 77.5538 230.705 78.5321 229.371 79.1547C228.037 79.7773 226.703 79.7773 225.458 79.3326C224.212 78.799 223.234 77.9096 222.701 76.5755C222.167 75.2414 222.078 73.9074 222.523 72.6622C222.878 71.3282 223.768 70.3499 225.191 69.8162ZM225.635 70.9724C224.568 71.4171 223.857 72.1286 223.501 73.1069C223.056 74.0852 223.145 75.0636 223.501 76.0419C223.946 77.1091 224.657 77.7317 225.635 78.0875C226.614 78.4432 227.592 78.3543 228.659 77.9096C229.727 77.4649 230.438 76.7534 230.794 75.7751C231.15 74.7967 231.15 73.8184 230.794 72.8401C230.349 71.8618 229.638 71.1503 228.659 70.7945C227.77 70.4388 226.703 70.5277 225.635 70.9724Z" fill="#2D3970"/>
<path d="M225.635 84.1352L225.28 82.979L234.707 79.7773L236.486 85.0246L235.419 85.3804L233.996 81.2892L225.635 84.1352Z" fill="#2D3970"/>
<path d="M229.104 95.7861L228.748 94.6299L237.286 92.3175L236.397 88.849L234.529 89.2047C233.284 89.3826 232.217 89.5605 231.328 89.5605C230.438 89.6494 229.727 89.5605 229.193 89.5605C228.659 89.5605 228.215 89.3826 227.859 89.1158C227.503 88.9379 227.325 88.6711 227.147 88.4932C227.058 88.2264 226.97 87.9596 226.881 87.6038L228.037 87.337C228.037 87.5149 228.126 87.6928 228.215 87.7817C228.304 87.8706 228.482 88.0485 228.748 88.1374C229.015 88.2264 229.46 88.3153 229.905 88.4043C231.061 88.4932 232.751 88.3153 235.152 87.8706L237.108 87.5149L238.62 93.2958L229.104 95.7861Z" fill="#2D3970"/>
<path d="M229.727 98.4542L229.549 97.2091L240.132 99.6994L240.31 100.767L231.15 106.725L230.972 105.48L233.729 103.702L232.928 99.2547L229.727 98.4542ZM234.707 102.99L238.62 100.5L234.085 99.4326L234.707 102.99Z" fill="#2D3970"/>
<path d="M233.64 114.641L232.75 115.175C232.395 114.908 232.039 114.463 231.861 113.929C231.594 113.396 231.416 112.773 231.416 112.151C231.327 110.639 231.683 109.394 232.484 108.415C233.373 107.437 234.529 106.814 236.041 106.725C237.553 106.637 238.798 106.903 239.777 107.704C240.844 108.504 241.377 109.66 241.555 111.172C241.644 112.417 241.466 113.485 240.844 114.285L239.866 113.84C240.31 113.129 240.488 112.329 240.399 111.35C240.31 110.283 239.866 109.394 239.065 108.771C238.265 108.148 237.286 107.882 236.13 107.971C234.974 108.06 233.996 108.504 233.373 109.305C232.75 110.105 232.395 111.083 232.573 112.24C232.662 113.129 233.017 113.929 233.64 114.641Z" fill="#2D3970"/>
<path d="M236.842 115.708C238.265 115.708 239.51 116.153 240.488 117.042C241.466 118.021 242 119.177 242 120.689C242 122.112 241.555 123.357 240.666 124.335C239.688 125.313 238.531 125.847 237.019 125.847C235.596 125.847 234.351 125.402 233.284 124.424C232.306 123.446 231.772 122.29 231.772 120.778C231.772 119.266 232.217 118.11 233.106 117.131C234.084 116.242 235.33 115.708 236.842 115.708ZM236.842 116.953C235.685 116.953 234.796 117.309 233.996 118.11C233.284 118.821 232.928 119.799 232.928 120.867C232.928 122.023 233.373 122.912 234.084 123.624C234.885 124.335 235.774 124.691 236.93 124.602C238.087 124.602 238.976 124.246 239.777 123.446C240.488 122.734 240.844 121.756 240.844 120.689C240.844 119.621 240.399 118.732 239.688 118.021C238.976 117.309 237.998 116.953 236.842 116.953Z" fill="#2D3970"/>
<path d="M231.772 127.982L241.644 128.871C241.555 130.205 241.466 131.094 241.466 131.628C241.377 132.695 241.111 133.496 240.577 133.94C240.132 134.385 239.51 134.652 238.709 134.563C238.176 134.474 237.642 134.296 237.286 133.94C236.93 133.585 236.664 133.14 236.575 132.606C236.397 133.229 236.13 133.763 235.685 134.029C235.241 134.385 234.707 134.474 234.084 134.474C233.106 134.385 232.484 134.029 232.039 133.318C231.594 132.606 231.416 131.717 231.505 130.65C231.594 129.494 231.683 128.604 231.772 127.982ZM236.041 131.183L236.219 129.583L232.839 129.316C232.75 129.671 232.661 130.205 232.661 130.828C232.573 131.539 232.661 132.162 232.928 132.606C233.195 133.051 233.64 133.318 234.262 133.318C234.796 133.407 235.241 133.229 235.507 132.873C235.774 132.517 235.952 131.895 236.041 131.183ZM240.31 131.45C240.31 131.183 240.399 130.65 240.399 129.938L237.197 129.671L237.019 131.272C236.93 131.806 237.108 132.34 237.375 132.695C237.642 133.051 237.998 133.318 238.531 133.318C239.599 133.407 240.221 132.784 240.31 131.45Z" fill="#2D3970"/>
<path d="M230.883 136.431L231.061 135.186L240.221 141.144L240.043 142.212L229.46 144.702L229.638 143.457L232.839 142.745L233.64 138.298L230.883 136.431ZM234.084 142.39L238.62 141.322L234.707 138.832L234.084 142.39Z" fill="#2D3970"/>
<path d="M227.058 153.774L227.414 152.617L231.772 153.774L233.195 148.526L228.837 147.37L229.193 146.214L238.798 148.793L238.443 149.949L234.262 148.793L232.839 154.04L237.02 155.197L236.664 156.353L227.058 153.774Z" fill="#2D3970"/>
<path d="M231.15 165.869L225.813 157.42L226.169 156.442L235.508 159.999L235.063 161.155L227.592 158.309L232.928 166.759L232.573 167.737L223.234 164.179L223.679 163.023L231.15 165.869Z" fill="#2D3970"/>
<path d="M219.588 171.917L222.078 166.759L231.061 171.116L228.659 176.186L227.592 175.652L229.549 171.65L226.614 170.227L224.924 173.785L223.857 173.251L225.546 169.693L222.523 168.27L220.566 172.362L219.588 171.917Z" fill="#2D3970"/>
<path d="M220.032 186.859L216.564 177.52L217.097 176.631L225.547 181.967L224.924 183.034L218.165 178.765L221.633 188.104L221.1 188.993L212.651 183.657L213.273 182.678L220.032 186.859Z" fill="#2D3970"/>
<path d="M211.316 191.75L208.292 189.349L209.093 188.37L216.831 194.596C216.564 194.863 216.297 195.219 216.03 195.574C215.763 195.93 215.496 196.286 215.23 196.642C214.429 197.62 213.629 198.243 212.739 198.243C211.939 198.331 211.138 198.065 210.516 197.531C209.804 196.997 209.449 196.286 209.36 195.397C209.271 194.507 209.627 193.707 210.338 192.728C210.783 192.373 211.05 192.017 211.316 191.75ZM214.34 196.019C214.429 195.93 214.785 195.485 215.23 194.863L212.206 192.462C211.761 192.906 211.494 193.262 211.227 193.529C210.783 194.062 210.516 194.685 210.605 195.219C210.694 195.752 210.872 196.197 211.316 196.642C211.761 196.997 212.295 197.175 212.828 197.086C213.362 196.997 213.807 196.642 214.34 196.019Z" fill="#2D3970"/>
<path d="M204.468 194.062L205.269 193.173L209.627 203.134L208.915 203.935L198.687 200.199L199.577 199.221L202.689 200.377L205.802 197.086L204.468 194.062ZM203.846 200.822L208.204 202.423L206.336 198.243L203.846 200.822Z" fill="#2D3970"/>
<path d="M195.841 202.689C196.375 202.245 196.908 201.889 197.531 201.711C198.154 201.533 198.776 201.533 199.31 201.622L199.399 202.689C198.954 202.601 198.42 202.689 197.887 202.778C197.353 202.956 196.997 203.134 196.642 203.401C196.108 203.846 195.841 204.379 195.752 204.913C195.663 205.447 195.841 205.891 196.197 206.336C196.553 206.692 196.908 206.87 197.353 206.87C197.798 206.87 198.242 206.603 198.687 206.247L199.577 205.447L200.377 206.247L199.577 206.958C199.221 207.225 199.043 207.67 199.043 208.115C199.043 208.559 199.132 209.004 199.488 209.36C199.843 209.716 200.199 209.893 200.644 209.893C201.088 209.893 201.533 209.716 201.889 209.36C202.511 208.737 202.867 208.026 202.778 207.047L203.846 207.136C203.934 207.67 203.846 208.293 203.579 208.826C203.312 209.36 202.956 209.893 202.511 210.338C201.889 210.961 201.177 211.227 200.466 211.227C199.754 211.227 199.132 210.961 198.598 210.338C198.242 209.982 198.065 209.627 197.976 209.093C197.887 208.559 197.887 208.115 198.154 207.67C197.62 207.937 197.175 208.115 196.642 208.026C196.108 207.937 195.663 207.67 195.219 207.225C194.596 206.603 194.418 205.802 194.507 205.002C194.685 204.024 195.13 203.312 195.841 202.689Z" fill="#2D3970"/>
<path d="M191.661 206.603L197.798 214.429C196.82 215.23 196.108 215.852 195.663 216.119C194.774 216.831 194.063 217.097 193.351 217.097C192.64 217.097 192.106 216.742 191.572 216.119C191.216 215.674 191.039 215.23 191.039 214.696C191.039 214.162 191.217 213.718 191.483 213.273C190.95 213.629 190.327 213.718 189.793 213.629C189.26 213.54 188.815 213.184 188.37 212.739C187.748 212.028 187.57 211.227 187.837 210.427C188.015 209.627 188.548 208.915 189.438 208.204C190.327 207.492 191.039 206.958 191.661 206.603ZM192.195 211.85L193.44 210.872L191.394 208.204C191.039 208.381 190.683 208.737 190.149 209.093C189.527 209.538 189.171 210.071 189.082 210.516C188.993 210.961 189.082 211.494 189.438 211.939C189.793 212.384 190.149 212.562 190.683 212.562C191.128 212.562 191.661 212.295 192.195 211.85ZM194.952 215.23C195.219 215.052 195.574 214.696 196.108 214.251L194.151 211.761L192.906 212.739C192.462 213.095 192.195 213.451 192.106 213.985C192.017 214.429 192.106 214.874 192.462 215.319C192.995 216.03 193.885 216.03 194.952 215.23Z" fill="#2D3970"/>
<path d="M183.212 222.345L183.924 212.384L184.813 211.761L190.238 220.121L189.26 220.744L184.902 214.073L184.19 224.035L183.301 224.657L177.876 216.297L178.854 215.674L183.212 222.345Z" fill="#2D3970"/>
<path d="M177.698 226.436L180.811 224.835L181.344 225.813L174.14 229.638L173.607 228.659L176.72 227.058L172.54 219.232L173.607 218.698L177.698 226.436Z" fill="#2D3970"/>
<path d="M164.713 231.594L167.203 221.9L168.181 221.455L172.095 230.616L170.939 231.061L167.826 223.768L165.335 233.462L164.357 233.907L160.444 224.746L161.6 224.301L164.713 231.594Z" fill="#2D3970"/>
<path d="M152.351 227.414L157.865 225.635L160.978 235.063L155.641 236.842L155.286 235.774L159.466 234.44L158.487 231.416L154.663 232.662L154.307 231.594L158.132 230.349L157.064 227.147L152.706 228.57L152.351 227.414Z" fill="#2D3970"/>
<path d="M145.769 232.839L147.548 229.104L148.437 229.549L147.014 232.484L149.683 234.351L149.149 235.152L145.769 232.839ZM148.437 232.128L150.216 228.392L151.106 228.837L149.683 231.772L152.351 233.64L151.817 234.44L148.437 232.128Z" fill="#2D3970"/>
<path d="M143.812 230.171C143.812 230.438 143.813 230.616 143.724 230.794C143.635 230.972 143.457 231.061 143.19 231.15C142.923 231.239 142.656 231.15 142.389 230.883C142.123 230.616 142.034 230.349 141.945 229.993C141.856 229.46 141.856 229.015 142.123 228.57C142.301 228.126 142.656 227.859 143.101 227.592L143.546 228.037C143.101 228.304 142.834 228.659 142.834 229.193C142.834 229.549 142.923 229.727 143.012 229.904C143.012 229.816 143.101 229.727 143.279 229.727C143.457 229.727 143.546 229.727 143.724 229.815C143.724 229.904 143.812 229.993 143.812 230.171Z" fill="#2D3970"/>
<path d="M138.832 235.596C139.01 237.019 138.654 238.265 137.765 239.332C136.875 240.399 135.808 241.022 134.296 241.2C132.873 241.377 131.628 241.022 130.561 240.132C129.494 239.243 128.871 238.087 128.693 236.664C128.515 235.241 128.871 233.907 129.76 232.839C130.65 231.772 131.806 231.15 133.229 230.972C134.652 230.794 135.897 231.15 136.964 232.039C138.121 232.928 138.654 234.085 138.832 235.596ZM137.587 235.774C137.498 234.618 136.964 233.729 136.164 233.106C135.363 232.395 134.385 232.128 133.318 232.306C132.251 232.395 131.361 232.928 130.739 233.729C130.116 234.529 129.849 235.508 130.027 236.664C130.116 237.82 130.65 238.709 131.45 239.332C132.251 240.043 133.229 240.31 134.296 240.132C135.363 240.043 136.253 239.51 136.875 238.709C137.498 237.909 137.676 236.931 137.587 235.774Z" fill="#2D3970"/>
<path d="M127.092 236.753C127.092 238.176 126.648 239.421 125.758 240.399C124.78 241.377 123.624 241.911 122.112 241.911C120.689 241.911 119.444 241.466 118.465 240.577C117.487 239.599 116.953 238.442 116.953 236.931C116.953 235.508 117.398 234.262 118.376 233.195C119.355 232.217 120.511 231.683 122.023 231.683C123.535 231.683 124.691 232.128 125.669 233.017C126.559 234.085 127.092 235.33 127.092 236.753ZM125.847 236.842C125.847 235.685 125.491 234.796 124.691 233.996C123.979 233.284 123.001 232.928 121.934 232.928C120.778 232.928 119.888 233.373 119.177 234.085C118.465 234.885 118.11 235.774 118.198 236.931C118.198 238.087 118.554 238.976 119.355 239.777C120.066 240.488 121.045 240.844 122.112 240.844C123.179 240.844 124.068 240.399 124.78 239.688C125.491 238.887 125.847 237.998 125.847 236.842Z" fill="#2D3970"/>
<path d="M115.263 236.842C115.174 238.265 114.552 239.421 113.485 240.31C112.417 241.2 111.172 241.555 109.749 241.466C108.326 241.288 107.17 240.755 106.281 239.688C105.391 238.62 105.036 237.375 105.213 235.863C105.391 234.44 105.925 233.195 106.992 232.306C108.059 231.416 109.305 231.061 110.728 231.238C112.151 231.327 113.307 231.95 114.196 233.017C114.997 234.085 115.352 235.33 115.263 236.842ZM113.929 236.753C114.018 235.596 113.751 234.618 113.129 233.818C112.506 233.017 111.617 232.573 110.55 232.395C109.393 232.306 108.504 232.573 107.704 233.284C106.903 233.996 106.459 234.885 106.37 236.041C106.281 237.197 106.547 238.176 107.17 238.976C107.793 239.777 108.682 240.221 109.749 240.399C110.817 240.488 111.795 240.221 112.595 239.51C113.396 238.798 113.84 237.909 113.929 236.753Z" fill="#2D3970"/>
<path d="M95.1636 230.082L96.053 229.549L98.0096 233.106V233.195L94.8079 235.685L94.1853 234.885L96.7645 232.928L95.1636 230.082ZM97.8318 230.616L98.7211 230.082L100.678 233.64V233.729L97.476 236.219L96.8534 235.419L99.4326 233.462L97.8318 230.616Z" fill="#2D3970"/>
<path d="M85.0246 236.486L83.6016 236.041L89.1157 232.75L86.0918 226.347L87.6038 226.792L90.5387 233.017L85.0246 236.486ZM92.1396 228.126L93.2958 228.481L90.5387 238.087L89.3825 237.731L92.1396 228.126Z" fill="#2D3970"/>
<path d="M84.1353 231.061C83.6016 232.395 82.7122 233.373 81.4671 233.907C80.222 234.44 78.8879 234.529 77.5538 233.996C76.2198 233.462 75.2415 232.573 74.7078 231.327C74.1742 230.082 74.1742 228.748 74.7078 227.325C75.2415 225.991 76.1308 225.013 77.376 224.39C78.6211 223.857 79.9552 223.857 81.2892 224.301C82.6233 224.746 83.6016 225.724 84.1353 226.97C84.6689 228.304 84.6689 229.638 84.1353 231.061ZM82.9791 230.527C83.4238 229.46 83.4238 228.481 82.9791 227.503C82.5344 226.525 81.8229 225.813 80.8446 225.458C79.7773 225.013 78.799 225.102 77.9096 225.547C76.9313 225.991 76.3087 226.792 75.864 227.859C75.4193 228.926 75.4193 229.904 75.864 230.883C76.3087 231.861 77.0202 232.573 77.9985 232.928C78.9769 233.284 79.9552 233.284 80.9335 232.839C81.8229 232.395 82.5344 231.683 82.9791 230.527Z" fill="#2D3970"/>
<path d="M67.5929 218.343L68.6601 218.876L66.6146 222.878L71.5062 225.369L73.5517 221.366L74.619 221.9L70.1721 230.794L69.1048 230.26L71.0615 226.436L66.1699 223.946L64.2132 227.77L63.146 227.236L67.5929 218.343Z" fill="#2D3970"/>
<path d="M58.3432 214.874L58.4321 213.807C58.8768 213.718 59.4104 213.718 60.033 213.807C60.6556 213.896 61.1892 214.162 61.7228 214.518C62.968 215.319 63.7684 216.297 64.1242 217.631C64.391 218.965 64.1242 220.21 63.3237 221.544C62.5233 222.789 61.545 223.59 60.2998 223.946C59.0547 224.301 57.7206 224.123 56.4755 223.234C55.4082 222.612 54.6967 221.722 54.4299 220.833L55.4082 220.388C55.6751 221.189 56.2976 221.811 57.0981 222.345C57.9874 222.878 58.9658 223.056 59.9441 222.789C60.9224 222.523 61.7228 221.9 62.3454 220.922C62.968 219.943 63.1458 218.876 62.968 217.898C62.7012 216.92 62.1675 216.119 61.1892 215.497C60.122 214.963 59.3215 214.785 58.3432 214.874Z" fill="#2D3970"/>
<path d="M57.7207 212.206L58.6991 212.917L49.2716 218.431L48.4712 217.809L51.0504 207.225L52.1176 208.026L51.3172 211.227L54.9637 213.896L57.7207 212.206ZM50.9615 212.295L49.8942 216.742L53.8964 214.429L50.9615 212.295Z" fill="#2D3970"/>
<path d="M44.469 201.444L45.3584 202.245L39.4885 208.826L42.1566 211.227L43.4907 209.893C44.3801 209.004 45.1805 208.381 45.892 207.848C46.6035 207.314 47.2261 206.958 47.6708 206.692C48.1154 206.425 48.5601 206.336 49.0048 206.336C49.4495 206.336 49.7163 206.336 49.9831 206.514C50.25 206.603 50.4278 206.87 50.6946 207.136L49.8942 208.026C49.8053 207.848 49.6274 207.759 49.4495 207.759C49.2716 207.67 49.0938 207.67 48.827 207.759C48.5601 207.759 48.1154 207.937 47.6708 208.204C46.6924 208.737 45.3584 209.893 43.5796 211.583L42.1566 213.006L37.7097 209.004L44.469 201.444Z" fill="#2D3970"/>
<path d="M34.6858 204.024L37.0871 206.514L36.2867 207.314L30.6836 201.355L31.484 200.555L33.8854 203.045L40.2889 196.997L41.0893 197.887L34.6858 204.024Z" fill="#2D3970"/>
<path d="M26.2367 192.906L36.1977 192.639L36.8203 193.44L29.0827 199.666L28.3712 198.687L34.5969 193.707L24.6358 193.974L23.9243 193.173L31.6619 186.947L32.3734 187.926L26.2367 192.906Z" fill="#2D3970"/>
<path d="M25.792 178.143L26.4146 179.121L22.6792 181.611L25.7031 186.236L29.4385 183.746L30.0611 184.724L21.7009 190.149L21.0783 189.171L24.7248 186.858L21.7009 182.234L18.0544 184.546L17.4319 183.568L25.792 178.143Z" fill="#2D3970"/>
<path d="M23.8353 174.585L24.3689 175.652L15.653 180.366L12.9849 175.474L13.9632 174.941L16.0088 178.765L23.8353 174.585Z" fill="#2D3970"/>
<path d="M16.9871 172.54C15.653 173.162 14.4079 173.162 13.0738 172.717C11.7397 172.273 10.8504 171.294 10.2278 169.96C9.60523 168.626 9.60523 167.292 10.0499 166.047C10.4946 164.802 11.4729 163.824 12.807 163.201C14.1411 162.578 15.4751 162.578 16.7203 163.023C17.9654 163.557 18.9437 164.446 19.4773 165.78C20.0999 167.114 20.0999 168.448 19.6552 169.694C19.2995 171.028 18.4101 172.006 16.9871 172.54ZM16.4534 171.383C17.5207 170.939 18.2322 170.227 18.588 169.249C18.9437 168.271 18.9437 167.292 18.499 166.314C18.0543 165.336 17.3428 164.624 16.3645 164.268C15.3862 163.913 14.4079 164.001 13.3406 164.446C12.2734 164.891 11.5619 165.602 11.2061 166.581C10.8504 167.559 10.8504 168.537 11.295 169.516C11.7397 170.494 12.4512 171.205 13.4296 171.561C14.4079 171.917 15.3862 171.917 16.4534 171.383Z" fill="#2D3970"/>
<path d="M16.8092 159.377L7.38182 162.578C6.93713 161.333 6.58137 160.444 6.49244 159.999C6.13669 158.932 6.04775 158.132 6.31456 157.509C6.58137 156.886 7.02606 156.442 7.73757 156.175C8.27119 155.997 8.80482 155.997 9.24951 156.175C9.6942 156.353 10.1389 156.62 10.4946 157.064C10.4057 156.442 10.4946 155.819 10.7615 155.374C11.0283 154.93 11.473 154.574 12.0955 154.307C12.9849 154.04 13.7853 154.04 14.4079 154.574C15.1194 155.019 15.5641 155.819 15.9199 156.886C16.3645 157.865 16.6314 158.754 16.8092 159.377ZM7.55969 159.643C7.64863 159.91 7.82651 160.355 8.09332 161.067L11.1172 159.999L10.5836 158.487C10.4057 157.954 10.1389 157.598 9.6942 157.331C9.33845 157.064 8.89376 157.064 8.36013 157.242C7.38182 157.598 7.115 158.398 7.55969 159.643ZM11.5619 158.22L12.0955 159.732L15.2973 158.665C15.2083 158.309 15.0305 157.776 14.8526 157.153C14.5858 156.442 14.319 155.908 13.8743 155.641C13.4296 155.374 12.9849 155.286 12.3623 155.463C11.8287 155.641 11.5619 155.908 11.384 156.442C11.2951 156.886 11.384 157.509 11.5619 158.22Z" fill="#2D3970"/>
<path d="M14.1411 151.283L14.4079 152.44L3.64645 150.661L3.37964 149.682L12.0956 143.101L12.4513 144.346L9.8721 146.303L10.9394 150.75L14.1411 151.283ZM8.80485 147.103L5.06946 149.86L9.60529 150.572L8.80485 147.103Z" fill="#2D3970"/>
<path d="M10.9393 135.897L11.1172 137.053L7.47074 137.676L7.73755 139.544L11.8287 141.5L12.0066 142.834L7.73755 140.7C7.55968 141.322 7.29286 141.856 6.84817 142.301C6.40348 142.745 5.86986 143.012 5.24729 143.101C4.26897 143.279 3.46853 143.101 2.75703 142.478C2.04553 141.945 1.60084 141.055 1.33402 139.721C1.33402 139.721 1.24509 139.277 1.15615 138.565C1.06721 138.209 1.06721 137.854 0.978271 137.409L10.9393 135.897ZM6.6703 139.81L6.40348 137.854L2.49022 138.476C2.57915 139.099 2.66809 139.544 2.66809 139.81C2.75703 140.522 3.11278 141.055 3.55747 141.411C4.00216 141.767 4.53579 141.856 5.15835 141.767C5.69198 141.678 6.04773 141.411 6.31454 141.055C6.58136 140.7 6.6703 140.255 6.6703 139.81Z" fill="#2D3970"/>
<path d="M10.2279 128.782L10.3168 130.027L0.355752 130.65L0 125.136L1.15619 125.047L1.42301 129.405L10.2279 128.782Z" fill="#2D3970"/>
<path d="M6.13671 121.667L9.96104 121.756V123.001L0 122.823C0 122.467 0 122.023 0 121.578C0 121.133 0 120.689 0 120.244C0 118.91 0.355752 118.021 0.889379 117.398C1.51194 116.864 2.22345 116.509 3.11283 116.598C4.0022 116.598 4.71371 116.953 5.33627 117.576C5.95884 118.198 6.22565 119.088 6.22565 120.244C6.22565 120.778 6.22565 121.311 6.13671 121.667ZM1.15619 120.155C1.15619 120.333 1.15619 120.867 1.15619 121.667L4.98052 121.756C5.06946 121.133 5.06946 120.689 5.06946 120.333C5.06946 119.621 4.89158 118.999 4.53583 118.643C4.18008 118.287 3.73539 118.021 3.11283 118.021C2.49026 118.021 2.04557 118.198 1.68982 118.554C1.33407 118.91 1.15619 119.355 1.15619 120.155Z" fill="#2D3970"/>
<path d="M0.711432 107.793L0.80037 106.548L8.18221 110.639C8.98266 111.083 9.51628 111.439 9.7831 111.884C10.1388 112.329 10.2278 112.773 10.2278 113.307C10.2278 113.84 10.0499 114.196 9.7831 114.463L8.80478 113.929C8.98266 113.663 9.07159 113.485 9.16053 113.218C9.16053 112.773 8.89372 112.329 8.27115 111.884L7.9154 111.706L0.0888672 115.619L0.177805 114.285L6.67027 111.083L0.711432 107.793Z" fill="#2D3970"/>
<path d="M12.2734 98.1874L12.0955 99.3436L3.37963 97.8317L2.49025 103.168L11.2062 104.68L11.0283 105.836L1.24512 104.146L2.57919 96.4087L12.2734 98.1874Z" fill="#2D3970"/>
<path d="M14.9415 87.9596L14.5857 89.1158L6.04767 86.8034L4.62467 92.0507L13.1627 94.3631L12.807 95.5193L3.20166 92.9401L5.33617 85.2914L14.9415 87.9596Z" fill="#2D3970"/>
<path d="M15.742 85.3804L15.2973 86.5366L7.38184 78.9769L7.73759 77.9985L18.6769 77.4649L18.2323 78.71L14.9416 78.8879L13.3407 83.1569L15.742 85.3804ZM13.7854 78.8879L9.16059 79.0658L12.5402 82.2675L13.7854 78.8879Z" fill="#2D3970"/>
<path d="M20.8115 70.5277L21.0784 71.5061L17.1651 72.4844H17.0762L15.5642 68.749L16.4536 68.3932L17.6987 71.3282L20.8115 70.5277ZM22.0567 68.1264L22.3235 69.1047L18.4102 70.0831H18.3213L16.8093 66.3477L17.6987 65.9919L18.9438 69.0158L22.0567 68.1264Z" fill="#2D3970"/>
<path d="M25.9698 59.8552L27.037 59.9441C27.126 60.3888 27.126 60.9225 27.037 61.545C26.9481 62.1676 26.6813 62.7012 26.4145 63.2348C25.614 64.48 24.6357 65.2804 23.3016 65.6362C21.9676 65.903 20.7224 65.7251 19.3884 64.9247C18.1432 64.1242 17.3428 63.1459 16.8981 61.9008C16.5423 60.6556 16.7202 59.3216 17.5207 58.0765C18.1432 57.0092 18.9437 56.2977 19.922 55.9419L20.4556 56.9203C19.6552 57.276 19.0326 57.8096 18.5879 58.6101C18.0543 59.4995 17.8764 60.4778 18.1432 61.4561C18.41 62.4344 19.0326 63.2348 20.0999 63.8574C21.0782 64.48 22.1454 64.6579 23.1238 64.391C24.1021 64.1242 24.9025 63.5017 25.5251 62.5233C25.9698 61.634 26.1476 60.7446 25.9698 59.8552Z" fill="#2D3970"/>
<path d="M32.1956 54.2521L28.9049 58.9658L20.8115 53.1849L24.1022 48.5601L24.9916 49.1827L22.4124 52.7402L25.0805 54.6079L27.3929 51.3172L28.2823 51.9397L25.9699 55.2304L28.727 57.1871L31.3951 53.4517L32.1956 54.2521Z" fill="#2D3970"/>
<path d="M33.5295 52.4734L25.8809 46.1588C26.6813 45.0915 27.2149 44.38 27.5707 44.0242C28.2822 43.2238 28.9047 42.6902 29.6163 42.6012C30.3278 42.5123 30.9503 42.6902 31.4839 43.1349C31.9286 43.4906 32.1954 43.9353 32.2844 44.38C32.3733 44.8247 32.3733 45.3583 32.1065 45.8919C32.6401 45.4473 33.0848 45.2694 33.7074 45.1804C34.241 45.1804 34.7746 45.3583 35.3083 45.803C36.0198 46.4256 36.3755 47.1371 36.3755 47.9375C36.3755 48.738 35.9308 49.5384 35.2193 50.4278C34.5968 51.3172 33.9742 52.0287 33.5295 52.4734ZM28.4601 44.8247C28.2822 45.0026 28.0154 45.4473 27.5707 45.9809L30.0609 48.0265L31.0393 46.7813C31.395 46.3366 31.5729 45.8919 31.5729 45.4473C31.5729 45.0026 31.395 44.5579 30.9503 44.2911C30.1499 43.5796 29.3494 43.7574 28.4601 44.8247ZM31.8397 47.4928L30.7724 48.738L33.3516 50.8725C33.6185 50.6057 33.9742 50.2499 34.4189 49.7163C34.8636 49.1826 35.1304 48.5601 35.1304 48.1154C35.1304 47.5818 34.9525 47.1371 34.5078 46.7813C34.0631 46.4256 33.7074 46.3366 33.1738 46.5145C32.6401 46.6924 32.2844 46.8703 31.8397 47.4928Z" fill="#2D3970"/>
<path d="M43.1349 41.8008L39.1327 45.9809L31.9287 39.0437L35.842 34.9526L36.6424 35.753L33.6185 38.9548L35.9309 41.1782L38.688 38.3322L39.4884 39.1327L36.7314 41.9787L39.1327 44.2911L42.2455 41.0004L43.1349 41.8008Z" fill="#2D3970"/>
<path d="M43.046 36.6424L45.6251 39.4884L44.7358 40.2889L38.0654 32.907C38.3322 32.6402 38.688 32.3734 38.9548 32.0176C39.3106 31.7508 39.5774 31.3951 39.9331 31.1283C40.9114 30.2389 41.8008 29.8831 42.6013 29.8831C43.4017 29.8831 44.1132 30.2389 44.7358 30.9504C45.2694 31.573 45.5362 32.3734 45.5362 33.2628C45.4473 34.1522 45.0026 34.9526 44.2021 35.753C43.7575 36.0198 43.4017 36.3756 43.046 36.6424ZM40.8225 31.8398C40.7336 31.9287 40.2889 32.2845 39.7553 32.907L42.3344 35.753C42.7791 35.3973 43.2238 35.0415 43.4906 34.8637C44.0243 34.419 44.38 33.8853 44.38 33.3517C44.469 32.8181 44.2911 32.2845 43.8464 31.8398C43.4017 31.3951 42.957 31.1283 42.4234 31.1283C41.9787 31.1283 41.4451 31.3951 40.8225 31.8398Z" fill="#2D3970"/>
<path d="M50.9613 30.3278L50.7835 34.419L49.8051 34.33L49.983 31.1283L46.7812 30.5057L46.9591 29.5274L50.9613 30.3278ZM53.0958 28.638L52.918 32.7291L51.9397 32.6402L52.1175 29.4384L48.9158 28.8159L49.0936 27.8376L53.0958 28.638Z" fill="#2D3970"/>
<path d="M55.8531 30.1499C55.7641 29.9721 55.6752 29.7942 55.7641 29.6163C55.7641 29.4384 55.942 29.2606 56.1199 29.0827C56.2978 28.9938 56.4756 28.9048 56.6535 28.9937C56.8314 28.9937 57.0093 29.1716 57.1871 29.2606C57.2761 29.4384 57.365 29.6163 57.365 29.8831C57.365 30.1499 57.2761 30.2389 57.0982 30.4168C56.9203 30.5057 56.7425 30.5946 56.4756 30.5946C56.1199 30.4168 55.942 30.3278 55.8531 30.1499Z" fill="#2D3970"/>
</svg>
