<svg width="242" height="242" viewBox="0 0 242 242" fill="none" xmlns="http://www.w3.org/2000/svg">
    <path opacity="0.3" d="M29.555 110.984V99.816C31.0377 99.7733 32.0617 99.752 32.627 99.752C33.843 99.752 34.7443 99.9973 35.331 100.488C35.9283 100.968 36.227 101.645 36.227 102.52C36.227 103.171 36.0563 103.715 35.715 104.152C35.3737 104.589 34.9043 104.909 34.307 105.112V105.144C35.0323 105.261 35.5977 105.549 36.003 106.008C36.419 106.467 36.627 107.064 36.627 107.8C36.627 108.867 36.2643 109.677 35.539 110.232C34.8137 110.776 33.8217 111.048 32.563 111.048C31.3363 111.048 30.3337 111.027 29.555 110.984ZM32.723 105.896H30.915V109.704C31.3523 109.747 31.9283 109.768 32.643 109.768C33.4857 109.768 34.131 109.597 34.579 109.256C35.0377 108.904 35.267 108.392 35.267 107.72C35.267 107.133 35.043 106.685 34.595 106.376C34.1577 106.056 33.5337 105.896 32.723 105.896ZM32.595 101.032C32.275 101.032 31.715 101.048 30.915 101.08V104.696H32.707C33.3363 104.696 33.8537 104.531 34.259 104.2C34.6643 103.859 34.867 103.4 34.867 102.824C34.867 101.629 34.1097 101.032 32.595 101.032ZM43.7758 111H42.4958V103.8H47.0558V105H43.7758V111ZM49.5726 114.2H48.2926V103.8H49.5726V104.648C49.8286 104.349 50.1806 104.109 50.6286 103.928C51.0766 103.736 51.5406 103.64 52.0206 103.64C53.0446 103.64 53.85 103.981 54.4366 104.664C55.0446 105.336 55.3486 106.211 55.3486 107.288C55.3486 108.387 55.002 109.309 54.3086 110.056C53.626 110.792 52.7246 111.16 51.6046 111.16C50.7406 111.16 50.0633 110.995 49.5726 110.664V114.2ZM51.6526 104.84C50.7993 104.84 50.106 105.171 49.5726 105.832V109.4C50.138 109.773 50.778 109.96 51.4926 109.96C52.25 109.96 52.8526 109.72 53.3006 109.24C53.7593 108.749 53.9886 108.115 53.9886 107.336C53.9886 106.579 53.7806 105.976 53.3646 105.528C52.9486 105.069 52.378 104.84 51.6526 104.84ZM61.99 103.8H63.446L60.566 111C60.0433 112.269 59.59 113.112 59.206 113.528C58.8007 113.976 58.3367 114.2 57.814 114.2C57.3447 114.2 56.8913 114.051 56.454 113.752L56.87 112.776C57.2113 112.936 57.478 113.016 57.67 113.016C57.9687 113.016 58.2353 112.888 58.47 112.632C58.7153 112.376 58.9607 111.96 59.206 111.384L59.366 111L55.91 103.8H57.446L59.558 108.376C59.6007 108.451 59.7447 108.813 59.99 109.464C60.086 109.112 60.198 108.744 60.326 108.36L61.99 103.8ZM71.2414 111H69.9614V105H66.0414V111H64.7614V103.8H71.2414V111ZM80.0383 111H78.7583V105H74.8383V111H73.5583V103.8H80.0383V111ZM87.4431 103.8H88.8991L86.0191 111C85.4965 112.269 85.0431 113.112 84.6591 113.528C84.2538 113.976 83.7898 114.2 83.2671 114.2C82.7978 114.2 82.3445 114.051 81.9071 113.752L82.3231 112.776C82.6645 112.936 82.9311 113.016 83.1231 113.016C83.4218 113.016 83.6885 112.888 83.9231 112.632C84.1685 112.376 84.4138 111.96 84.6591 111.384L84.8191 111L81.3631 103.8H82.8991L85.0111 108.376C85.0538 108.451 85.1978 108.813 85.4431 109.464C85.5391 109.112 85.6511 108.744 85.7791 108.36L87.4431 103.8ZM98.4323 103.8H100.112L96.9603 107.24L100.416 111H98.6403L95.3923 107.32L98.4323 103.8ZM95.0883 111H93.8083V103.8H95.0883V111ZM101.962 110.104C101.258 109.379 100.906 108.477 100.906 107.4C100.906 106.312 101.258 105.416 101.962 104.712C102.677 103.997 103.605 103.64 104.746 103.64C105.888 103.64 106.81 103.997 107.514 104.712C108.229 105.416 108.586 106.312 108.586 107.4C108.586 108.488 108.229 109.389 107.514 110.104C106.81 110.808 105.888 111.16 104.746 111.16C103.616 111.16 102.688 110.808 101.962 110.104ZM102.97 105.56C102.501 106.029 102.266 106.643 102.266 107.4C102.266 108.157 102.496 108.771 102.954 109.24C103.424 109.72 104.021 109.96 104.746 109.96C105.472 109.96 106.064 109.725 106.522 109.256C106.992 108.776 107.226 108.157 107.226 107.4C107.226 106.664 106.992 106.051 106.522 105.56C106.064 105.08 105.472 104.84 104.746 104.84C104.021 104.84 103.429 105.08 102.97 105.56ZM111.713 111H110.433V103.8H111.601L114.369 107.368L116.993 103.8H118.129V111H116.849V105.752L114.353 109.096H114.305L111.713 105.752V111ZM126.929 111H125.649V105H121.729V111H120.449V103.8H126.929V111ZM129.63 105.32L129.294 104.296C130.008 103.859 130.808 103.64 131.694 103.64C132.664 103.64 133.368 103.88 133.806 104.36C134.243 104.84 134.462 105.581 134.462 106.584V111H133.246V110.072C132.68 110.765 131.912 111.112 130.942 111.112C130.28 111.112 129.747 110.915 129.342 110.52C128.936 110.115 128.734 109.571 128.734 108.888C128.734 108.184 128.984 107.629 129.486 107.224C129.987 106.808 130.643 106.6 131.454 106.6C132.211 106.6 132.808 106.755 133.246 107.064C133.246 106.253 133.134 105.672 132.91 105.32C132.686 104.968 132.254 104.792 131.614 104.792C130.963 104.792 130.302 104.968 129.63 105.32ZM131.39 109.96C132.104 109.96 132.723 109.651 133.246 109.032V108.12C132.798 107.8 132.259 107.64 131.63 107.64C131.192 107.64 130.824 107.747 130.526 107.96C130.238 108.163 130.094 108.451 130.094 108.824C130.094 109.176 130.206 109.453 130.43 109.656C130.664 109.859 130.984 109.96 131.39 109.96ZM143.165 111H141.885V107.96H137.885V111H136.605V103.8H137.885V106.76H141.885V103.8H143.165V111ZM150.92 105.64L146.76 111H145.48V103.8H146.76V109.16L150.92 103.8H152.2V111H150.92V105.64ZM159.967 105.64L155.807 111H154.527V103.8H155.807V109.16L159.967 103.8H161.247V111H159.967V105.64ZM155.551 100.12H156.751C156.815 100.963 157.226 101.384 157.983 101.384C158.698 101.384 159.087 100.963 159.151 100.12H160.351C160.351 100.771 160.127 101.309 159.679 101.736C159.242 102.152 158.676 102.36 157.983 102.36C157.226 102.36 156.628 102.157 156.191 101.752C155.764 101.336 155.551 100.792 155.551 100.12ZM167.168 111V103.8C167.221 103.8 167.296 103.8 167.392 103.8C167.488 103.789 167.626 103.784 167.808 103.784C167.989 103.773 168.154 103.768 168.304 103.768C169.093 103.747 169.584 103.736 169.776 103.736C171.845 103.736 172.88 104.355 172.88 105.592C172.88 106.019 172.746 106.387 172.48 106.696C172.213 106.995 171.866 107.176 171.44 107.24V107.272C172.56 107.475 173.12 108.04 173.12 108.968C173.12 110.365 172.016 111.064 169.808 111.064C169.701 111.064 169.232 111.053 168.4 111.032C168.24 111.032 168.064 111.027 167.872 111.016C167.68 111.016 167.53 111.011 167.424 111C167.317 111 167.232 111 167.168 111ZM169.984 107.768H168.448V109.976C169.216 110.008 169.706 110.024 169.92 110.024C171.146 110.024 171.76 109.64 171.76 108.872C171.76 108.136 171.168 107.768 169.984 107.768ZM169.872 104.776C169.562 104.776 169.088 104.792 168.448 104.824V106.968H170.064C170.501 106.968 170.853 106.867 171.12 106.664C171.386 106.461 171.52 106.189 171.52 105.848C171.52 105.133 170.97 104.776 169.872 104.776ZM179.986 103.8H181.474L178.898 107.272L181.634 111H180.066L177.954 108.088L175.81 111H174.322L177.042 107.336L174.482 103.8H176.05L178.002 106.52L179.986 103.8ZM183.369 110.104C182.665 109.379 182.313 108.477 182.313 107.4C182.313 106.312 182.665 105.416 183.369 104.712C184.083 103.997 185.011 103.64 186.153 103.64C187.294 103.64 188.217 103.997 188.921 104.712C189.635 105.416 189.993 106.312 189.993 107.4C189.993 108.488 189.635 109.389 188.921 110.104C188.217 110.808 187.294 111.16 186.153 111.16C185.022 111.16 184.094 110.808 183.369 110.104ZM184.377 105.56C183.907 106.029 183.673 106.643 183.673 107.4C183.673 108.157 183.902 108.771 184.361 109.24C184.83 109.72 185.427 109.96 186.153 109.96C186.878 109.96 187.47 109.725 187.929 109.256C188.398 108.776 188.633 108.157 188.633 107.4C188.633 106.664 188.398 106.051 187.929 105.56C187.47 105.08 186.878 104.84 186.153 104.84C185.427 104.84 184.835 105.08 184.377 105.56ZM191.766 112.76H190.566V109.8H191.462C191.729 109.469 191.964 108.936 192.166 108.2C192.369 107.453 192.502 106.621 192.566 105.704L192.678 103.8H197.59V109.8H198.79V112.76H197.59V111H191.766V112.76ZM193.878 105L193.798 106.2C193.734 107 193.606 107.731 193.414 108.392C193.222 109.053 193.025 109.523 192.822 109.8H196.31V105H193.878ZM205.623 105.64L201.463 111H200.183V103.8H201.463V109.16L205.623 103.8H206.903V111H205.623V105.64ZM210.958 105.08H208.318V103.8H214.878V105.08H212.238V111H210.958V105.08ZM43.7367 143.2H42.4567V132.8H43.7367V133.648C43.9927 133.349 44.3447 133.109 44.7927 132.928C45.2407 132.736 45.7047 132.64 46.1847 132.64C47.2087 132.64 48.014 132.981 48.6007 133.664C49.2087 134.336 49.5127 135.211 49.5127 136.288C49.5127 137.387 49.166 138.309 48.4727 139.056C47.79 139.792 46.8887 140.16 45.7687 140.16C44.9047 140.16 44.2274 139.995 43.7367 139.664V143.2ZM45.8167 133.84C44.9634 133.84 44.27 134.171 43.7367 134.832V138.4C44.302 138.773 44.942 138.96 45.6567 138.96C46.414 138.96 47.0167 138.72 47.4647 138.24C47.9234 137.749 48.1527 137.115 48.1527 136.336C48.1527 135.579 47.9447 134.976 47.5287 134.528C47.1127 134.069 46.542 133.84 45.8167 133.84ZM54.1556 132.8H56.3956V140H55.1156V137.6H53.7236L51.9636 140H50.4116L52.4916 137.28C52.0542 137.184 51.6862 136.949 51.3876 136.576C51.0889 136.192 50.9396 135.733 50.9396 135.2C50.9396 134.464 51.2062 133.883 51.7396 133.456C52.2729 133.019 53.0782 132.8 54.1556 132.8ZM52.2996 135.232C52.2996 135.573 52.4329 135.856 52.6996 136.08C52.9662 136.293 53.2809 136.4 53.6436 136.4H55.1156V134H53.9476C53.4036 134 52.9929 134.112 52.7156 134.336C52.4382 134.56 52.2996 134.859 52.2996 135.232ZM58.9303 141.76H57.7303V138.8H58.6263C58.893 138.469 59.1276 137.936 59.3303 137.2C59.533 136.453 59.6663 135.621 59.7303 134.704L59.8423 132.8H64.7543V138.8H65.9543V141.76H64.7543V140H58.9303V141.76ZM61.0423 134L60.9623 135.2C60.8983 136 60.7703 136.731 60.5783 137.392C60.3863 138.053 60.189 138.523 59.9863 138.8H63.4743V134H61.0423ZM72.3011 140H70.9411V132.8H72.3011V135.68H73.8691C74.0184 134.763 74.4184 134.027 75.0691 133.472C75.7304 132.917 76.5411 132.64 77.5011 132.64C78.6317 132.64 79.5384 132.997 80.2211 133.712C80.9144 134.427 81.2611 135.323 81.2611 136.4C81.2611 137.477 80.9091 138.379 80.2051 139.104C79.5117 139.808 78.6104 140.16 77.5011 140.16C76.4877 140.16 75.6557 139.867 75.0051 139.28C74.3544 138.693 73.9704 137.92 73.8531 136.96H72.3011V140ZM75.9011 134.608C75.4744 135.067 75.2611 135.664 75.2611 136.4C75.2611 137.136 75.4744 137.733 75.9011 138.192C76.3277 138.651 76.8771 138.88 77.5491 138.88C78.2211 138.88 78.7651 138.656 79.1811 138.208C79.6077 137.749 79.8211 137.147 79.8211 136.4C79.8211 135.664 79.6131 135.067 79.1971 134.608C78.7811 134.149 78.2317 133.92 77.5491 133.92C76.8771 133.92 76.3277 134.149 75.9011 134.608ZM84.3773 143.2H83.0973V132.8H84.3773V133.648C84.6333 133.349 84.9853 133.109 85.4333 132.928C85.8813 132.736 86.3453 132.64 86.8253 132.64C87.8493 132.64 88.6546 132.981 89.2413 133.664C89.8493 134.336 90.1533 135.211 90.1533 136.288C90.1533 137.387 89.8066 138.309 89.1133 139.056C88.4306 139.792 87.5293 140.16 86.4093 140.16C85.5453 140.16 84.868 139.995 84.3773 139.664V143.2ZM86.4573 133.84C85.604 133.84 84.9106 134.171 84.3773 134.832V138.4C84.9426 138.773 85.5826 138.96 86.2973 138.96C87.0546 138.96 87.6573 138.72 88.1053 138.24C88.564 137.749 88.7933 137.115 88.7933 136.336C88.7933 135.579 88.5853 134.976 88.1693 134.528C87.7533 134.069 87.1826 133.84 86.4573 133.84ZM97.4279 134.64L93.2679 140H91.9879V132.8H93.2679V138.16L97.4279 132.8H98.7079V140H97.4279V134.64ZM101.243 141.76H100.043V138.8H100.939C101.205 138.469 101.44 137.936 101.643 137.2C101.845 136.453 101.979 135.621 102.043 134.704L102.155 132.8H107.067V138.8H108.267V141.76H107.067V140H101.243V141.76ZM103.355 134L103.275 135.2C103.211 136 103.083 136.731 102.891 137.392C102.699 138.053 102.501 138.523 102.299 138.8H105.787V134H103.355ZM115.1 134.64L110.94 140H109.66V132.8H110.94V138.16L115.1 132.8H116.38V140H115.1V134.64ZM122.835 132.8H124.115V140H122.835V137.2C122.28 137.552 121.613 137.728 120.835 137.728C119.128 137.728 118.275 136.811 118.275 134.976V132.8H119.635V134.832C119.635 135.963 120.152 136.528 121.187 136.528C121.859 136.528 122.408 136.379 122.835 136.08V132.8ZM132.105 138.208L132.505 139.216C131.812 139.845 130.911 140.16 129.801 140.16C128.628 140.16 127.695 139.819 127.001 139.136C126.297 138.453 125.945 137.541 125.945 136.4C125.945 135.323 126.276 134.427 126.937 133.712C127.588 132.997 128.495 132.64 129.657 132.64C130.617 132.64 131.412 132.949 132.041 133.568C132.681 134.176 133.001 134.965 133.001 135.936C133.001 136.245 132.975 136.533 132.921 136.8H127.385C127.439 137.472 127.689 138 128.137 138.384C128.596 138.768 129.183 138.96 129.897 138.96C130.836 138.96 131.572 138.709 132.105 138.208ZM129.593 133.84C128.964 133.84 128.441 134.016 128.025 134.368C127.62 134.72 127.38 135.184 127.305 135.76H131.673C131.641 135.163 131.439 134.693 131.065 134.352C130.703 134.011 130.212 133.84 129.593 133.84ZM140.18 138.032L140.788 138.96C140.17 139.76 139.247 140.16 138.02 140.16C136.868 140.16 135.935 139.819 135.22 139.136C134.516 138.453 134.164 137.541 134.164 136.4C134.164 135.344 134.511 134.453 135.204 133.728C135.898 133.003 136.767 132.64 137.812 132.64C139.071 132.64 140.015 132.955 140.644 133.584L140.052 134.592C139.498 134.091 138.81 133.84 137.988 133.84C137.316 133.84 136.735 134.085 136.244 134.576C135.764 135.056 135.524 135.664 135.524 136.4C135.524 137.179 135.77 137.797 136.26 138.256C136.762 138.725 137.38 138.96 138.116 138.96C138.948 138.96 139.636 138.651 140.18 138.032ZM147.081 132.8H148.761L145.609 136.24L149.065 140H147.289L144.041 136.32L147.081 132.8ZM143.737 140H142.457V132.8H143.737V140ZM155.865 134.64L151.705 140H150.425V132.8H151.705V138.16L155.865 132.8H157.145V140H155.865V134.64ZM164.384 132.8H165.872L163.296 136.272L166.032 140H164.464L162.352 137.088L160.208 140H158.72L161.44 136.336L158.88 132.8H160.448L162.4 135.52L164.384 132.8ZM177.383 140H176.103V134.08H173.575L173.495 135.296C173.41 136.288 173.282 137.115 173.111 137.776C172.951 138.427 172.738 138.917 172.471 139.248C172.215 139.568 171.943 139.792 171.655 139.92C171.367 140.037 171.015 140.096 170.599 140.096L170.503 138.848C170.621 138.859 170.743 138.843 170.871 138.8C170.999 138.747 171.138 138.64 171.287 138.48C171.447 138.32 171.586 138.107 171.703 137.84C171.831 137.573 171.943 137.2 172.039 136.72C172.146 136.229 172.215 135.669 172.247 135.04L172.375 132.8H177.383V140ZM185.131 134.64L180.971 140H179.691V132.8H180.971V138.16L185.131 132.8H186.411V140H185.131V134.64ZM195.138 140H188.738V132.8H190.018V138.8H193.858V132.8H195.138V138.8H196.338V141.76H195.138V140ZM198.25 133.504C198.25 133.28 198.336 133.083 198.506 132.912C198.688 132.741 198.906 132.656 199.162 132.656C199.386 132.656 199.584 132.741 199.754 132.912C199.925 133.083 200.01 133.28 200.01 133.504C200.01 133.76 199.93 133.979 199.77 134.16C199.61 134.331 199.408 134.416 199.162 134.416C198.906 134.416 198.688 134.331 198.506 134.16C198.336 133.979 198.25 133.76 198.25 133.504ZM198.25 139.136C198.25 138.912 198.336 138.715 198.506 138.544C198.688 138.373 198.906 138.288 199.162 138.288C199.386 138.288 199.584 138.373 199.754 138.544C199.925 138.715 200.01 138.912 200.01 139.136C200.01 139.392 199.93 139.611 199.77 139.792C199.61 139.963 199.408 140.048 199.162 140.048C198.906 140.048 198.688 139.963 198.506 139.792C198.336 139.611 198.25 139.392 198.25 139.136Z" fill="#010B3B"/>
</svg>
